<?xml version="1.0" encoding="UTF-8"?>
<svg width="143px" height="142px" viewBox="0 0 143 142" version="1.1" xmlns="http://www.w3.org/2000/svg" xmlns:xlink="http://www.w3.org/1999/xlink">
    <title>icon</title>
    <g id="Page-1" stroke="none" stroke-width="1" fill="none" fill-rule="evenodd">
        <g id="icon" transform="translate(0.600000, 0.000000)" fill="#D0AF4F" fill-rule="nonzero">
            <path d="M70.79,0 C89.5646753,0 107.570389,7.45821073 120.846089,20.733911 C134.121789,34.0096112 141.58,52.0153247 141.58,70.79 C141.58,109.886237 109.886237,141.58 70.79,141.58 C31.6937626,141.58 0,109.886237 0,70.79 C0,31.6937626 31.6937626,0 70.79,0 Z M2.54807272,70.8799178 C2.54820246,70.973186 2.54852351,71.0664624 2.54903601,71.1597464 C2.54978989,71.296997 2.5509593,71.4343485 2.5525432,71.5716781 C2.55725781,71.9804519 2.56565304,72.3894569 2.57773772,72.7985411 C2.5809611,72.9080095 2.5844526,73.0173428 2.58820655,73.1266577 C2.59301682,73.2662183 2.59824324,73.4058196 2.60389989,73.5454267 C2.60967905,73.6887821 2.61593167,73.8320356 2.62263477,73.9752531 C2.62525767,74.0303938 2.62791651,74.0857145 2.63064298,74.1410357 C2.65400135,74.6163313 2.68235245,75.0909944 2.71564472,75.5651732 C2.72467968,75.6916841 2.73388593,75.8176211 2.7434441,75.9435535 C2.75391351,76.0840204 2.76501425,76.2246969 2.77654986,76.3653268 C2.78305804,76.4418218 2.78948514,76.5184694 2.79604283,76.5951143 C2.81191599,76.7838778 2.82879581,76.9722309 2.84645562,77.1604932 C2.85647184,77.263531 2.86641892,77.3668621 2.8766039,77.470186 C2.89155042,77.625996 2.90737346,77.7813226 2.92372754,77.9365825 C2.93227602,78.013116 2.94053614,78.0901345 2.94892873,78.167148 C2.97102641,78.3750745 2.99453654,78.5823746 3.01899344,78.7895465 C3.0270302,78.8519029 3.03449423,78.9142597 3.04204533,78.9766126 C3.06700418,79.1889965 3.09367481,79.401316 3.12134001,79.6134911 C3.12707906,79.6506598 3.13194436,79.6876524 3.13684039,79.7246432 C5.06116746,94.3035894 11.683208,108.194998 22.5341051,119.045895 C42.0490352,138.560825 71.3983993,144.397659 96.8951103,133.834386 C112.374383,127.421333 124.582689,115.730362 131.785424,101.358113 C135.208971,94.5445901 137.524168,87.0780773 138.494924,79.1954312 C138.506529,79.0896576 138.519274,78.9846074 138.531777,78.8794984 C138.558318,78.6664497 138.582649,78.4523653 138.605987,78.2379827 C138.619726,78.1034081 138.633966,77.9695147 138.647815,77.8355303 C138.675616,77.5728944 138.701173,77.3095436 138.725229,77.0457589 C138.775051,76.4973838 138.818742,75.9474436 138.85581,75.3961269 C138.861321,75.3112674 138.866834,75.2265806 138.872192,75.1418518 C138.91594,74.4565938 138.949225,73.7689745 138.972146,73.0794372 C138.97327,73.0307257 138.974858,72.981403 138.976394,72.9320672 C138.999028,72.2196668 139.010106,71.5057466 139.010001,70.79 L139.01,70.77 C139.01,70.054277 138.998818,69.3403818 138.97659,68.6285169 C138.974577,68.569679 138.972687,68.5113491 138.970724,68.4530378 C138.959839,68.1260423 138.946431,67.7988457 138.930697,67.4721028 L138.928166,67.4189752 C138.924312,67.3397743 138.920323,67.2606088 138.9162,67.1814791 C138.902707,66.926351 138.887949,66.6720567 138.871784,66.4180513 C138.865707,66.3159109 138.859003,66.2135401 138.852073,66.1112311 C138.83354,65.8467859 138.814005,65.5828201 138.792954,65.3191822 C138.787485,65.2392326 138.780969,65.1588945 138.774313,65.078596 C138.763533,64.9613099 138.753468,64.8442868 138.743104,64.7273301 C137.868625,54.784124 134.859958,45.4535364 130.178696,37.1956902 C130.097775,37.0534367 130.016858,36.9115187 129.935438,36.7698999 C129.893192,36.6968642 129.850732,36.6235205 129.80814,36.5502634 C122.448328,23.8574749 111.033651,13.5913819 96.8881804,7.73274335 C71.391149,-2.82737808 42.0434252,3.01192418 22.5305687,22.527641 C11.4708896,33.5889412 4.80522388,47.8090501 3.02901494,62.6960124 L3.02963854,62.6964945 C2.97365197,63.1600267 2.92303919,63.6246889 2.87719162,64.0899235 C2.86713772,64.195705 2.85701416,64.3007626 2.84713636,64.4058267 C2.83276903,64.5553079 2.81915882,64.7056497 2.80604616,64.8560469 C2.7964595,64.9689161 2.78691044,65.0815075 2.77764301,65.1941039 C2.76870248,65.3001504 2.7602393,65.4061615 2.75202329,65.5121982 C2.73919534,65.679956 2.72680513,65.8476996 2.71503872,66.0154488 C2.68658607,66.4196111 2.6618547,66.8242626 2.6407252,67.2292167 C2.63433092,67.3527241 2.6282286,67.4760062 2.62246203,67.5992855 C2.61161395,67.8305472 2.60197604,68.0620046 2.59351561,68.2935466 L2.59353147,68.2935913 C2.58765615,68.4539063 2.58236147,68.6143065 2.57763217,68.7747443 C2.56615531,69.1641651 2.55801348,69.5535191 2.55320646,69.9427582 C2.55126923,70.0996774 2.54987222,70.2566902 2.54901737,70.413729 L2.54806778,70.6934225 L2.54806778,70.6934225 Z" id="Combined-Shape"></path>
            <path d="M108.22,94.33 L129.13,58.13 L93.51,37.57 L95.46,34.2 C95.5466858,34.0502651 95.5700976,33.8721488 95.5250504,33.7050988 C95.4800032,33.5380488 95.3702147,33.3958516 95.22,33.31 L94.31,32.78 C94.1610246,32.6851754 93.9798794,32.6550468 93.8082305,32.6965444 C93.6365816,32.7380419 93.4892052,32.8475932 93.4,33 L70.79,72.23 L48.15,33 C48.0660919,32.8504606 47.9256856,32.7408463 47.7602557,32.695729 C47.5948258,32.6506118 47.4182101,32.6731762 47.27,32.76 L46.35,33.29 C46.1997853,33.3758516 46.0899968,33.5180488 46.0449496,33.6850988 C45.9999024,33.8521488 46.0233142,34.0302651 46.11,34.18 L48.11,37.55 L12.45,58.13 L33.4,94.33 L69.01,73.77 L69.48,74.58 L50.54,107.39 C50.4529457,107.536991 50.4282714,107.712685 50.4714704,107.877968 C50.5146695,108.043251 50.6221558,108.184403 50.77,108.27 L51.69,108.8 C51.8369906,108.887054 52.0126848,108.911729 52.177968,108.86853 C52.3432511,108.825331 52.4844033,108.717844 52.57,108.57 L70.84,76.93 L89.1,108.57 C89.282254,108.879279 89.6807205,108.982254 89.99,108.8 L90.9,108.27 C91.0495394,108.186092 91.1591537,108.045686 91.204271,107.880256 C91.2493882,107.714826 91.2262344,107.53821 91.14,107.39 L72.15,74.58 L72.61,73.77 L108.22,94.33 Z M85.74,49.22 L85.94,49.33 L86.53,49.67 L120.94,69.54 L113.87,81.78 L79.46,61.91 L78.87,61.57 L78.67,61.46 L85.74,49.22 Z M37.47,79 L27.82,62.28 L44.54,52.63 L54.19,69.35 L37.47,79 Z" id="Shape"></path>
        </g>
    </g>
</svg>
